<svg width="37" height="60" viewBox="0 0 37 60" fill="none" xmlns="http://www.w3.org/2000/svg">
<path d="M17.4498 44.1741L2.30128 35.4006C1.67731 35.039 1.29297 34.3724 1.29297 33.6513V15.3904L17.4498 0.453693V44.1741Z" fill="#5F8A6C"/>
<path opacity="0.8" d="M30.4216 60C18.7871 58.0405 19.5181 45.0984 19.5268 44.968L19.5262 44.7962L18.1257 43.9854L33.1373 35.5151C33.6825 35.2077 34.0197 34.6304 34.0197 34.0046V15.5913L17.9961 1.15999L19.0312 2.0374L19.8611 1.26992L36.4311 16.2073V34.1423C36.4311 35.0632 35.935 35.9128 35.133 36.3658L20.1965 44.8009V44.9903C20.1936 45.0439 20.002 48.188 21.1907 51.5133C22.7687 55.9277 25.9123 58.5608 30.5328 59.3389L30.4216 60Z" fill="#C2C3C1"/>
<path d="M17.4355 44.1741V44.1657L17.4429 44.1699L17.4355 44.1741ZM17.45 44.166V0.467106L17.9964 0.959095L17.6565 0.670876L17.45 0.898094V43.3928L18.126 43.7845L17.45 44.166ZM17.4355 0.467106V0.453693L17.4429 0.460403L17.4355 0.467106Z" fill="#5F8A6C"/>
<path d="M17.4429 44.1699L17.4355 44.1657V0.467106L17.4429 0.460407L17.45 0.467106V44.166L17.4429 44.1699Z" fill="#274730"/>
<path d="M18.1253 43.7844L17.4492 43.3927V0.898014L17.6558 0.670795L17.9956 0.959015L34.0192 15.3903V33.8036C34.0192 34.4294 33.682 35.0067 33.1369 35.3141L18.1253 43.7844Z" fill="#4A6B56"/>
<path opacity="0.8" d="M17.449 0.453697L17.2215 0.207706L0.957031 15.2443V33.2243C0.957031 34.3295 1.54561 35.3506 2.50211 35.9047L17.4469 44.5603L32.8858 35.8413C33.7931 35.3289 34.3542 34.368 34.3542 33.3259V15.2416L17.4461 -8.01086e-05L17.2215 0.207706L17.449 0.453697L17.2246 0.703053L33.6839 15.5399V33.3259C33.6839 34.1261 33.2529 34.8644 32.5562 35.2577L17.4511 43.7879L2.838 35.3245C2.08868 34.8906 1.62732 34.0902 1.62732 33.2243V15.5372L17.6765 0.699696L17.449 0.453697Z" fill="white"/>
<path opacity="0.8" d="M1.2207 15.5425L17.4477 23.1628L34.0884 15.5432L33.9489 15.2382L17.4496 22.7934L1.36314 15.2389L1.2207 15.5425Z" fill="white"/>
<path opacity="0.8" d="M17.114 0.45369V44.1741H17.4492L17.1148 44.1515C17.1143 44.1584 17.0996 44.3796 17.0996 44.765C17.1009 46.0593 17.2609 49.2026 18.7028 52.2707C20.1382 55.3375 22.9065 58.3305 28.0096 59.1838L28.1209 58.5227C23.2403 57.6945 20.6932 54.9091 19.3095 51.9853C17.932 49.0622 17.7686 46.0024 17.7699 44.765C17.7699 44.5809 17.7733 44.4372 17.7767 44.3401C17.7804 44.2432 17.7835 44.1966 17.7835 44.1963L17.7843 44.1853V22.9783V0.45369H17.114Z" fill="white"/>
<path opacity="0.8" d="M22.6779 11.4599L17.3125 13.9795L17.4549 14.2825L22.8203 11.7629" fill="white"/>
<path opacity="0.8" d="M17.4607 33.19L10.2341 29.5043L10.082 29.803L17.3083 33.4885" fill="white"/>
</svg>
